<svg version="1.1" xmlns="http://www.w3.org/2000/svg" xmlns:xlink="http://www.w3.org/1999/xlink" width="302.8599853515625" height="34.80000305175781"><defs></defs><g transform="translate(-153.5487518310547,20.009994506835938)"><rect fill="rgb(255,255,255)" stroke="none" x="0" y="0" width="302.8599853515625" height="34.80000305175781" fill-opacity="0" transform="translate(153.5487518310547,-20.009994506835938)"></rect><g transform="translate(151.96875,18) rotate(0,0,0) translate(-151.96875,-18) matrix(1,0,0,1,151.96875,18)"><path fill="rgb(0,0,0)" fill-opacity="1" d="M7.63-31.80L16.25-31.80Q17.54-32.06 18.25-32.06L18.25-32.06Q18.76-32.06 19.32-31.59Q19.89-31.12 20.26-30.42Q20.64-29.71 20.64-29.06L20.64-29.06Q20.64-27.86 20.24-27.24Q19.84-26.62 18.93-26.62L18.93-26.62Q18.57-26.62 15.97-27.30L15.97-27.30Q15.81-27.30 14.30-27.16Q12.79-27.02 7.02-27.02L7.02-27.02Q5.66-27.02 5.43-27.16L5.43-27.16Q5.19-24.93 5.17-20.53L5.17-20.53Q5.19-20.41 6.22-20.41L6.22-20.41Q7.02-20.41 8.07-20.48Q9.13-20.55 9.48-20.64L9.48-20.64L13.89-21.30Q14.57-21.54 15.29-21.54L15.29-21.54Q16.68-21.54 16.68-19.24L16.68-19.24Q16.68-18.14 16.38-17.61Q16.09-17.08 15.56-16.91Q15.04-16.73 13.91-16.61L13.91-16.61L13.35-16.54L8.50-15.96Q8.07-15.91 6.95-15.78Q5.82-15.65 5.19-15.65L5.19-15.65L5.29-6.98Q5.29-3.70 3.67-3.70L3.67-3.70Q2.52-3.70 2.05-4.58Q1.58-5.46 1.58-7.03L1.58-7.03Q1.58-7.80 1.75-9.00L1.75-9.00Q1.84-9.75 1.84-10.05L1.84-10.05L2.07-26.62Q2.07-28.64 2.48-30.45Q2.89-32.27 4.04-32.27L4.04-32.27Q4.61-32.27 5.82-32.04L5.82-32.04Q7.04-31.80 7.63-31.80L7.63-31.80ZM34.11-22.24Q30.55-22.24 29.02-20.27Q27.48-18.30 27.48-14.22L27.48-14.22L27.48-13.40L27.71-6.18Q27.71-5.79 27.54-5.21Q27.36-4.64 26.98-4.20Q26.59-3.77 25.98-3.77L25.98-3.77Q24.86-3.77 24.43-4.45Q24.01-5.13 24.01-6.68L24.01-6.68Q24.01-7.71 24.06-8.83L24.06-8.83Q24.08-9.21 24.08-9.82L24.08-9.82L24.08-11.22L24.08-12.02Q24.08-13.33 24.21-15.63Q24.34-17.93 24.79-23.67L24.79-23.67Q24.86-24.84 25.31-25.52Q25.77-26.20 26.61-26.20L26.61-26.20Q27.08-26.20 27.49-25.58Q27.90-24.96 27.90-23.60L27.90-23.60Q27.90-21.51 27.83-21.04L27.83-21.04Q28.30-22.54 29.65-23.84Q31.00-25.14 32.59-25.92Q34.18-26.69 35.36-26.69L35.36-26.69Q37.28-26.69 38.75-25.94Q40.23-25.19 40.23-22.96L40.23-22.96Q40.23-22.26 39.93-21.68Q39.62-21.09 39.14-20.76Q38.66-20.43 38.14-20.43L38.14-20.43Q37.70-20.43 37.49-20.60Q37.28-20.76 37.09-21.11L37.09-21.11Q36.81-21.65 36.33-21.95Q35.85-22.24 34.65-22.24L34.65-22.24L34.11-22.24ZM63.20-9.00Q63.93-9.00 64.24-8.53Q64.56-8.06 64.56-7.03L64.56-7.03Q64.56-6.23 64.11-5.43Q63.67-4.64 62.89-4.12Q62.12-3.61 61.18-3.61L61.18-3.61Q60.27-3.61 59.34-4.27Q58.42-4.94 57.83-6.03Q57.25-7.12 57.25-8.27L57.25-8.27Q55.49-6.04 53.60-4.70Q51.71-3.35 49.58-3.35L49.58-3.35Q47.64-3.35 45.63-4.61Q43.63-5.88 42.34-8.02Q41.05-10.17 41.05-12.65L41.05-12.65Q41.05-16.00 42.57-19.21Q44.10-22.43 46.66-24.44Q49.23-26.46 52.21-26.46L52.21-26.46Q54.46-26.46 56.39-25.10Q58.32-23.74 59.46-21.59Q60.60-19.45 60.60-17.25L60.60-17.25Q60.60-16.31 60.46-15.37Q60.32-14.43 60.29-14.20L60.29-14.20Q60.11-13.10 60.01-12.25Q59.92-11.41 59.92-10.43L59.92-10.43Q59.92-9.04 60.33-8.45Q60.74-7.85 61.56-7.85L61.56-7.85Q61.77-7.85 61.99-8.01Q62.21-8.18 62.52-8.48L62.52-8.48Q62.57-8.53 62.79-8.73Q63.01-8.93 63.20-9.00L63.20-9.00ZM50.33-7.85Q53.07-7.85 54.57-9.37Q56.07-10.89 56.63-12.85Q57.18-14.81 57.64-17.95L57.64-17.95Q57.64-18.68 56.78-19.61Q55.91-20.55 54.70-21.23Q53.50-21.91 52.54-21.91L52.54-21.91Q50.12-21.91 48.22-20.56Q46.32-19.21 45.28-17.11Q44.24-15.00 44.24-12.82L44.24-12.82Q44.24-11.39 45.13-10.25Q46.02-9.11 47.44-8.48Q48.86-7.85 50.33-7.85L50.33-7.85ZM82.09-12.89Q82.09-16.61 80.91-19.33Q79.72-22.05 76.39-22.05L76.39-22.05Q75.41-22.05 74.13-21.46Q72.86-20.88 71.66-19.86Q70.46-18.84 69.71-17.62L69.71-17.62Q69.71-16.82 69.67-14.95L69.67-14.95Q69.62-13.17 69.62-12.49L69.62-12.49Q69.62-11.76 69.71-11.07Q69.81-10.38 70.00-9.37L70.00-9.37Q70.14-8.62 70.24-7.81Q70.35-7.00 70.35-6.30L70.35-6.30Q70.35-4.96 70.04-4.29Q69.74-3.61 68.73-3.61L68.73-3.61Q67.72-3.61 67.11-4.17Q66.50-4.73 66.55-6.44L66.55-6.44L66.64-15.63Q66.39-18.96 66.39-20.20L66.39-20.20L66.39-20.90Q66.39-22.96 66.79-24.68Q67.18-26.39 68.07-26.39L68.07-26.39Q69.86-26.39 69.86-23.32L69.86-23.32Q69.86-22.82 69.71-21.37L69.71-21.37L69.64-20.76Q70.16-22.59 71.52-23.90Q72.88-25.21 74.45-25.88Q76.02-26.55 77.12-26.55L77.12-26.55Q81.53-26.55 83.38-22.94Q85.23-19.33 85.23-14.18L85.23-14.18Q85.23-9.39 84.79-6.30Q84.34-3.21 82.96-3.21L82.96-3.21Q82.35-3.21 81.97-3.36Q81.60-3.51 81.36-4.09Q81.13-4.66 81.13-5.86L81.13-5.86Q81.13-6.63 81.25-7.38Q81.36-8.13 81.60-9.25L81.60-9.25Q81.86-10.54 81.97-11.29Q82.09-12.04 82.09-12.89L82.09-12.89ZM104.24-9.16Q104.54-9.16 104.96-8.88Q105.39-8.60 105.71-7.96Q106.04-7.33 106.04-6.35L106.04-6.35Q106.04-5.83 105.71-5.23Q105.39-4.64 104.93-4.24Q104.47-3.84 104.12-3.84L104.12-3.84L102.74-3.84Q101.94-3.84 100.44-3.75L100.44-3.75Q98.94-3.65 98.12-3.65L98.12-3.65Q94.04-3.65 91.63-5.64Q89.21-7.64 89.21-12.42L89.21-12.42Q89.21-16.26 90.47-19.44Q91.72-22.61 94.14-24.48Q96.55-26.34 99.86-26.34L99.86-26.34Q101.50-26.34 102.89-25.53Q104.29-24.72 105.12-23.30Q105.95-21.89 105.95-20.15L105.95-20.15Q105.95-19.33 105.69-18.48Q105.43-17.62 104.89-17.62L104.89-17.62Q104.50-17.62 104.20-17.93Q103.91-18.23 103.49-18.89L103.49-18.89Q102.97-19.68 102.49-20.23Q102.01-20.79 101.17-21.18Q100.32-21.58 99.08-21.58L99.08-21.58Q97.16-21.58 95.61-20.47Q94.07-19.36 93.21-17.56Q92.36-15.77 92.36-13.80L92.36-13.80Q92.36-11.50 93.22-10.29Q94.09-9.07 95.86-8.60Q97.63-8.13 100.68-8.13L100.68-8.13Q101.33-8.13 101.80-8.26Q102.27-8.39 102.88-8.67L102.88-8.67Q103.65-9.04 104.24-9.16L104.24-9.16ZM119.19-3.35Q116.73-3.35 114.55-5.08Q112.37-6.82 111.07-9.48Q109.77-12.14 109.77-14.71L109.77-14.71Q109.77-18.79 111.19-21.44Q112.61-24.09 114.87-25.30Q117.13-26.50 119.75-26.50L119.75-26.50Q122.54-26.50 124.56-25.06Q126.57-23.62 127.64-20.96Q128.71-18.30 128.71-14.71L128.71-14.71Q128.71-11.46 127.36-8.86Q126.01-6.25 123.82-4.80Q121.63-3.35 119.19-3.35L119.19-3.35ZM125.64-14.93Q125.64-17.01 124.95-18.63Q124.25-20.25 123.04-21.15Q121.82-22.05 120.32-22.05L120.32-22.05Q118.46-22.05 116.73-21.27Q115.00-20.48 113.89-18.93Q112.79-17.39 112.79-15.21L112.79-15.21Q112.79-13.38 113.68-11.63Q114.57-9.89 116.00-8.80Q117.43-7.71 118.96-7.71L118.96-7.71Q120.69-7.71 122.23-8.57Q123.76-9.44 124.70-11.07Q125.64-12.70 125.64-14.93L125.64-14.93ZM147.90-3.89Q147.67-3.89 147.25-3.68L147.25-3.68Q147.06-3.58 146.84-3.50Q146.61-3.42 146.40-3.42L146.40-3.42Q145.91-3.42 145.28-3.70Q144.64-3.98 144.19-4.54Q143.73-5.11 143.73-5.88L143.73-5.88Q143.73-6.07 143.81-8.07Q143.89-10.07 144.04-22.68L144.04-22.68Q144.04-25.80 144.49-28.40Q144.95-31.00 146.07-31.40L146.07-31.40Q147.76-31.94 149.70-32.22Q151.63-32.50 153.25-32.50L153.25-32.50Q154.25-32.50 155.38-31.95Q156.50-31.40 157.28-30.38Q158.05-29.36 158.05-28.03L158.05-28.03Q158.05-25.50 156.55-23.32L156.55-23.32Q159.22-22.29 160.76-20.21Q162.29-18.14 162.29-15.04L162.29-15.04Q162.29-11.29 160.44-8.76Q158.59-6.23 155.52-5Q152.45-3.77 148.77-3.77L148.77-3.77Q148.65-3.77 148.38-3.83Q148.11-3.89 147.90-3.89L147.90-3.89ZM155.38-27.30Q155.38-27.68 154.36-27.89Q153.34-28.10 151.89-28.10L151.89-28.10Q151.18-28.10 150.02-27.97Q148.86-27.84 147.94-27.54Q147.01-27.23 146.99-26.74L146.99-26.74L146.85-23.06Q147.39-23.06 148.36-23.29Q149.33-23.53 152.50-24.54L152.50-24.54Q155.38-26.32 155.38-27.30L155.38-27.30ZM146.85-18.00L146.80-16.87L146.75-15.72L146.75-14.64Q146.75-10.75 146.99-8.46L146.99-8.46L148.51-8.57Q151.82-8.81 154.07-9.28Q156.32-9.75 157.99-11.18Q159.67-12.61 159.67-15.39L159.67-15.39Q159.67-16.73 158.58-17.73Q157.49-18.72 155.86-19.25Q154.23-19.78 152.66-19.78L152.66-19.78Q152.19-19.78 151.69-19.61Q151.18-19.45 150.34-19.07L150.34-19.07Q149.36-18.65 148.56-18.38Q147.76-18.11 146.85-18.00L146.85-18.00ZM183.27-9.25Q184.14-9.25 184.57-8.71Q185.00-8.18 185.00-7.03L185.00-7.03Q185.00-4.82 181.83-4.12Q178.65-3.42 175.56-3.42L175.56-3.42Q173.24-3.42 171.08-4.77Q168.93-6.11 167.59-8.43Q166.25-10.75 166.25-13.52L166.25-13.52Q166.25-17.48 167.54-20.53Q168.83-23.57 171.30-25.27Q173.78-26.97 177.18-26.97L177.18-26.97Q178.98-26.97 180.75-26.08Q182.52-25.19 183.67-23.48Q184.82-21.77 184.82-19.45L184.82-19.45Q184.82-18.25 184.46-17.45Q184.11-16.64 183.50-16.43L183.50-16.43L169.32-11.36Q170.05-9.04 172.28-8.34Q174.50-7.64 177.22-7.64L177.22-7.64Q178.11-7.64 179.00-7.89Q179.89-8.15 181.11-8.62L181.11-8.62Q181.89-8.93 182.39-9.09Q182.89-9.25 183.27-9.25L183.27-9.25ZM169.09-14.93Q170.85-15.42 173.10-16.31Q175.35-17.20 178.86-18.65L178.86-18.65Q181.23-19.64 182.10-19.96L182.10-19.96Q181.46-21.32 179.96-21.96Q178.46-22.59 176.50-22.59L176.50-22.59Q175.39-22.59 173.78-21.76Q172.16-20.93 170.80-19.19Q169.44-17.46 169.09-14.93L169.09-14.93ZM200.03-22.24Q196.46-22.24 194.93-20.27Q193.39-18.30 193.39-14.22L193.39-14.22L193.39-13.40L193.63-6.18Q193.63-5.79 193.45-5.21Q193.28-4.64 192.89-4.20Q192.50-3.77 191.89-3.77L191.89-3.77Q190.77-3.77 190.35-4.45Q189.93-5.13 189.93-6.68L189.93-6.68Q189.93-7.71 189.97-8.83L189.97-8.83Q190.00-9.21 190.00-9.82L190.00-9.82L190.00-11.22L190.00-12.02Q190.00-13.33 190.13-15.63Q190.25-17.93 190.70-23.67L190.70-23.67Q190.77-24.84 191.23-25.52Q191.68-26.20 192.53-26.20L192.53-26.20Q193.00-26.20 193.41-25.58Q193.82-24.96 193.82-23.60L193.82-23.60Q193.82-21.51 193.75-21.04L193.75-21.04Q194.21-22.54 195.56-23.84Q196.91-25.14 198.50-25.92Q200.10-26.69 201.27-26.69L201.27-26.69Q203.19-26.69 204.67-25.94Q206.14-25.19 206.14-22.96L206.14-22.96Q206.14-22.26 205.84-21.68Q205.54-21.09 205.05-20.76Q204.57-20.43 204.06-20.43L204.06-20.43Q203.61-20.43 203.40-20.60Q203.19-20.76 203.00-21.11L203.00-21.11Q202.72-21.65 202.24-21.95Q201.76-22.24 200.57-22.24L200.57-22.24L200.03-22.24ZM224.07-12.89Q224.07-16.61 222.89-19.33Q221.71-22.05 218.38-22.05L218.38-22.05Q217.39-22.05 216.12-21.46Q214.84-20.88 213.64-19.86Q212.45-18.84 211.70-17.62L211.70-17.62Q211.70-16.82 211.65-14.95L211.65-14.95Q211.61-13.17 211.61-12.49L211.61-12.49Q211.61-11.76 211.70-11.07Q211.79-10.38 211.98-9.37L211.98-9.37Q212.12-8.62 212.23-7.81Q212.33-7.00 212.33-6.30L212.33-6.30Q212.33-4.96 212.03-4.29Q211.72-3.61 210.71-3.61L210.71-3.61Q209.71-3.61 209.10-4.17Q208.49-4.73 208.54-6.44L208.54-6.44L208.63-15.63Q208.37-18.96 208.37-20.20L208.37-20.20L208.37-20.90Q208.37-22.96 208.77-24.68Q209.17-26.39 210.06-26.39L210.06-26.39Q211.84-26.39 211.84-23.32L211.84-23.32Q211.84-22.82 211.70-21.37L211.70-21.37L211.63-20.76Q212.14-22.59 213.50-23.90Q214.86-25.21 216.43-25.88Q218.00-26.55 219.11-26.55L219.11-26.55Q223.51-26.55 225.36-22.94Q227.21-19.33 227.21-14.18L227.21-14.18Q227.21-9.39 226.77-6.30Q226.32-3.21 224.94-3.21L224.94-3.21Q224.33-3.21 223.96-3.36Q223.58-3.51 223.35-4.09Q223.11-4.66 223.11-5.86L223.11-5.86Q223.11-6.63 223.23-7.38Q223.35-8.13 223.58-9.25L223.58-9.25Q223.84-10.54 223.96-11.29Q224.07-12.04 224.07-12.89L224.07-12.89ZM252.67-9.00Q253.39-9.00 253.71-8.53Q254.03-8.06 254.03-7.03L254.03-7.03Q254.03-6.23 253.58-5.43Q253.14-4.64 252.36-4.12Q251.59-3.61 250.65-3.61L250.65-3.61Q249.74-3.61 248.81-4.27Q247.89-4.94 247.30-6.03Q246.71-7.12 246.71-8.27L246.71-8.27Q244.96-6.04 243.07-4.70Q241.18-3.35 239.05-3.35L239.05-3.35Q237.11-3.35 235.10-4.61Q233.10-5.88 231.81-8.02Q230.52-10.17 230.52-12.65L230.52-12.65Q230.52-16.00 232.04-19.21Q233.57-22.43 236.13-24.44Q238.70-26.46 241.68-26.46L241.68-26.46Q243.93-26.46 245.86-25.10Q247.79-23.74 248.93-21.59Q250.07-19.45 250.07-17.25L250.07-17.25Q250.07-16.31 249.93-15.37Q249.79-14.43 249.76-14.20L249.76-14.20Q249.57-13.10 249.48-12.25Q249.39-11.41 249.39-10.43L249.39-10.43Q249.39-9.04 249.80-8.45Q250.21-7.85 251.03-7.85L251.03-7.85Q251.24-7.85 251.46-8.01Q251.68-8.18 251.99-8.48L251.99-8.48Q252.04-8.53 252.26-8.73Q252.48-8.93 252.67-9.00L252.67-9.00ZM239.80-7.85Q242.54-7.85 244.04-9.37Q245.54-10.89 246.09-12.85Q246.64-14.81 247.11-17.95L247.11-17.95Q247.11-18.68 246.25-19.61Q245.38-20.55 244.17-21.23Q242.96-21.91 242.00-21.91L242.00-21.91Q239.59-21.91 237.69-20.56Q235.79-19.21 234.75-17.11Q233.71-15.00 233.71-12.82L233.71-12.82Q233.71-11.39 234.60-10.25Q235.49-9.11 236.91-8.48Q238.32-7.85 239.80-7.85L239.80-7.85ZM266.45-22.24Q262.89-22.24 261.35-20.27Q259.82-18.30 259.82-14.22L259.82-14.22L259.82-13.40L260.05-6.18Q260.05-5.79 259.88-5.21Q259.70-4.64 259.31-4.20Q258.93-3.77 258.32-3.77L258.32-3.77Q257.19-3.77 256.77-4.45Q256.35-5.13 256.35-6.68L256.35-6.68Q256.35-7.71 256.39-8.83L256.39-8.83Q256.42-9.21 256.42-9.82L256.42-9.82L256.42-11.22L256.42-12.02Q256.42-13.33 256.55-15.63Q256.68-17.93 257.12-23.67L257.12-23.67Q257.19-24.84 257.65-25.52Q258.11-26.20 258.95-26.20L258.95-26.20Q259.42-26.20 259.83-25.58Q260.24-24.96 260.24-23.60L260.24-23.60Q260.24-21.51 260.17-21.04L260.17-21.04Q260.64-22.54 261.98-23.84Q263.33-25.14 264.93-25.92Q266.52-26.69 267.69-26.69L267.69-26.69Q269.61-26.69 271.09-25.94Q272.57-25.19 272.57-22.96L272.57-22.96Q272.57-22.26 272.26-21.68Q271.96-21.09 271.48-20.76Q271.00-20.43 270.48-20.43L270.48-20.43Q270.04-20.43 269.82-20.60Q269.61-20.76 269.43-21.11L269.43-21.11Q269.14-21.65 268.66-21.95Q268.18-22.24 266.99-22.24L266.99-22.24L266.45-22.24ZM284.71-26.46Q286.11-26.46 287.37-25.92Q288.62-25.38 289.42-24.39Q290.21-23.41 290.36-22.14L290.36-22.14L290.40-28.87L290.45-35.55Q290.45-38.01 292.23-38.01L292.23-38.01Q292.91-38.01 293.21-37.36Q293.52-36.70 293.52-35.79L293.52-35.79L293.50-32.32L293.45-28.78L293.17-13.89L293.07-9.84Q293.05-6.72 292.66-5.14Q292.28-3.56 291.08-3.56L291.08-3.56Q290.61-3.56 290.29-4.17Q289.96-4.78 289.54-5.95L289.54-5.95Q288.76-5.20 287.50-4.67Q286.23-4.14 284.89-3.88Q283.56-3.61 282.57-3.61L282.57-3.61Q278.38-3.61 276.22-6.37Q274.07-9.14 274.07-13.89L274.07-13.89Q274.07-17.18 275.34-20.06Q276.62-22.94 279.04-24.70Q281.45-26.46 284.71-26.46L284.71-26.46ZM283.16-7.75Q284.99-7.75 286.41-8.26Q287.82-8.76 288.66-9.46Q289.49-10.17 289.68-10.75L289.68-10.75Q289.86-11.36 289.92-12.07Q289.98-12.77 289.98-13.71L289.98-13.71L289.98-14.53L289.98-15.86Q289.98-17.46 289.25-18.89Q288.53-20.32 287.32-21.18Q286.11-22.05 284.80-22.05L284.80-22.05Q282.53-22.05 280.83-21.02Q279.13-19.99 278.23-18.17Q277.32-16.36 277.32-14.04L277.32-14.04Q277.32-12.14 278.09-10.71Q278.85-9.28 280.18-8.52Q281.52-7.75 283.16-7.75L283.16-7.75ZM304.44-34.33Q304.44-31.40 302.26-31.40L302.26-31.40Q301.30-31.40 300.47-31.96Q299.64-32.53 299.64-33.93L299.64-33.93Q299.64-34.64 300.02-35.36Q300.41-36.09 300.98-36.56Q301.56-37.03 302.07-37.03L302.07-37.03Q303.04-37.03 303.74-36.42Q304.44-35.81 304.44-34.33L304.44-34.33ZM303.13-5.88Q303.13-4.71 302.64-4.03Q302.14-3.35 301.54-3.35L301.54-3.35Q300.67-3.35 300.16-3.90Q299.66-4.45 299.40-5.74L299.40-5.74Q299.21-6.86 299.21-10.54L299.21-10.54Q299.21-16.64 299.70-21.59Q300.18-26.55 301.89-26.55L301.89-26.55Q302.59-26.55 302.81-25.93Q303.04-25.31 303.04-24.14L303.04-24.14L302.85-20.86Q302.73-19.19 302.64-17.36Q302.54-15.54 302.54-14.11L302.54-14.11Q302.54-12.58 302.85-9.84L302.85-9.84Q303.13-6.98 303.13-5.88L303.13-5.88Z"></path></g></g></svg>